<svg xmlns="http://www.w3.org/2000/svg" viewBox="0 0 1024 1024"><path d="M212,796.5c79.9-59.9,145.9-96.9,197.8-105,58.8-9.2,140.4,102,140.7,102.4,12.7,17.2-45.1-.7-56.6-2.5-6.2-1-19.9,11.5-18.8,20.6H701.4c5.7-9.9,3.9-17.7,0-19.4-19.9-8.7-70.6,21-102.5,3.1-23.6-13.3-72.2-61.4-82.1-76.9-16-24.7-5.8-38.5,19.1-50.7,51.2-24.9,71.2-36.1,117.8-87,52.9-57.7,93.2-148.9,78.9-224.7-6-32.1-7-65.4,3.9-82.6s56.7-31.7,75.5-34.2c-2.7-10.9-58.8-9-66.4-8.3-31.4-23.9-77.8-25-111.3-6.7C597,245,597.8,266.8,577.2,324.9,524.9,381.4,471.5,442.3,417.8,508,333,611.7,276.7,699.9,212,796.5Z"/></svg>