<svg xmlns="http://www.w3.org/2000/svg" viewBox="0 0 1024 1024"><path d="M264.1,619.1a105.8,105.8,0,0,0,37.4-6.8,81.6,81.6,0,0,0-17.1,11,84.2,84.2,0,1,0,136.9,53l82.9-26L657,730.2A107.2,107.2,0,0,0,759.9,867a107.1,107.1,0,1,0-85.2-171.8L557.1,633.8,655,603.1a84.2,84.2,0,1,0-12.3-37.2L508,608.1l-101.4-53L438.9,452,674.7,328.8A107.1,107.1,0,1,0,759.9,157,107.2,107.2,0,0,0,657,293.8L520.4,365.2,523,363a84.2,84.2,0,1,0-99.9,8.2l-16.7,53.6-53.2,27.8a109.3,109.3,0,0,0-35.8-33.5,107.1,107.1,0,1,0-53.3,200ZM759.9,692A67.9,67.9,0,1,1,692,759.9,68,68,0,0,1,759.9,692ZM726.6,513.6a45.1,45.1,0,1,1,0,90.2,45.1,45.1,0,0,1,0-90.2Zm33.3-317.4A67.9,67.9,0,1,1,692,264.1,67.9,67.9,0,0,1,759.9,196.2Zm-304.5,203,4.9-15.7a84.7,84.7,0,0,0,31-3.1Zm-33-99.6a44.8,44.8,0,0,1,13.2-31.9h0a45.1,45.1,0,1,1-13.2,31.9ZM337.9,733.4A45.1,45.1,0,1,1,383,688.3,45.2,45.2,0,0,1,337.9,733.4ZM455.1,624.7l-48.3,15.1a84.1,84.1,0,0,0-20.4-20.4l8.3-26.3Zm-86.5-136,21.2-11-18.5,59-2.7-1.4A107.7,107.7,0,0,0,368.6,488.7Zm-15.4,82.7,6.2,3.2-9.5,30.3a84.1,84.1,0,0,0-40.5,4.1,68,68,0,0,0,8-4.2A107.9,107.9,0,0,0,353.2,571.4ZM264.1,444.1A67.9,67.9,0,1,1,196.2,512,68,68,0,0,1,264.1,444.1Z"/></svg>