<svg xmlns="http://www.w3.org/2000/svg" viewBox="0 0 1024 1024"><path d="M264.5,759.5l2,1.7a349.4,349.4,0,0,0,491,0l2-1.7c.6-.6,1.1-1.3,1.7-2A348.7,348.7,0,0,0,862,512c0-193-157-350-350-350A348.7,348.7,0,0,0,266.5,262.8l-2,1.7c-.6.6-1.1,1.3-1.7,2a349.4,349.4,0,0,0,0,491C263.4,758.2,263.9,758.9,264.5,759.5Zm6.9-269.4H206.5a305.7,305.7,0,0,1,74.1-178.5l45.8,45.7a21.8,21.8,0,0,0,15.5,6.4,21.9,21.9,0,0,0,15.4-37.3l-45.7-45.8a305.7,305.7,0,0,1,178.5-74.1v64.9a21.9,21.9,0,0,0,43.8,0V206.5c151.4,10.8,272.8,132.2,283.6,283.6H752.6a21.9,21.9,0,0,0,0,43.8h64.9a305.7,305.7,0,0,1-74.1,178.5l-45.8-45.7a21.8,21.8,0,0,0-30.9,30.9l45.7,45.8a305.9,305.9,0,0,1-400.8,0l45.7-45.8a21.8,21.8,0,0,0-30.9-30.9l-45.8,45.7a305.7,305.7,0,0,1-74.1-178.5h64.9a21.9,21.9,0,0,0,0-43.8Z"/><path d="M512,555.8a43.9,43.9,0,0,0,41.4-57.9L681.6,351.4a21.9,21.9,0,1,0-32.9-28.8L520.5,469.1a40.2,40.2,0,0,0-8.5-.9,43.8,43.8,0,0,0,0,87.6Z"/></svg>