<svg xmlns="http://www.w3.org/2000/svg" viewBox="0 0 1024 1024"><path d="M853.2,424.1H805.9V394.2a51.8,51.8,0,0,0-51.7-51.7H269.8a51.8,51.8,0,0,0-51.7,51.7v29.9H170.7a17.2,17.2,0,0,0-17.2,17.3V575.9a17.2,17.2,0,0,0,17.2,17.2h47.4v35.4a51.8,51.8,0,0,0,51.7,51.7H411.3a51.5,51.5,0,0,0,49.4-36.5l3.9-12.7a17,17,0,0,1,16.3-12.1h61.9A17.1,17.1,0,0,1,559.2,631l3.9,12.7a51.4,51.4,0,0,0,49.4,36.5H754.2a51.8,51.8,0,0,0,51.7-51.7V593.1h47.3a17.2,17.2,0,0,0,17.3-17.2V441.4A17.2,17.2,0,0,0,853.2,424.1ZM218.1,558.6H188v-100h30.1Zm553.3,69.9a17.2,17.2,0,0,1-17.2,17.2H612.5a17.1,17.1,0,0,1-16.4-12.1l-3.9-12.7a51.4,51.4,0,0,0-49.4-36.5H480.9a51.4,51.4,0,0,0-49.3,36.5l-3.9,12.7a17.1,17.1,0,0,1-16.4,12.1H269.8a17.2,17.2,0,0,1-17.2-17.2V394.2A17.2,17.2,0,0,1,269.8,377H754.2a17.2,17.2,0,0,1,17.2,17.2ZM836,558.6H805.9v-100H836Z"/><path d="M308.7,545.1a17.3,17.3,0,0,0-24.4,24.4l40,39.9a17,17,0,0,0,24.3,0,17.1,17.1,0,0,0,0-24.4Z"/><path d="M328.7,490.7a17.3,17.3,0,1,0-24.4,24.4l74.4,74.4a17.2,17.2,0,0,0,12.2,5,17.1,17.1,0,0,0,17.2-17.2,17.1,17.1,0,0,0-5-12.2Z"/><path d="M205.8,194.6a50.7,50.7,0,1,0,50.6-50.7A50.7,50.7,0,0,0,205.8,194.6Zm73.8,0a23.2,23.2,0,1,1-23.2-23.2A23.2,23.2,0,0,1,279.6,194.6Z"/><path d="M544.6,268.4a50.7,50.7,0,1,0,50.7-50.7A50.8,50.8,0,0,0,544.6,268.4Zm73.9,0a23.2,23.2,0,1,1-23.2-23.2A23.2,23.2,0,0,1,618.5,268.4Z"/><path d="M701,194.6a50.7,50.7,0,1,0,50.7-50.7A50.7,50.7,0,0,0,701,194.6Zm73.9,0a23.2,23.2,0,1,1-23.2-23.2A23.2,23.2,0,0,1,774.9,194.6Z"/><path d="M803.8,815.5a50.7,50.7,0,1,0-50.6-50.7A50.8,50.8,0,0,0,803.8,815.5Zm0-73.9a23.2,23.2,0,1,1-23.1,23.2A23.2,23.2,0,0,1,803.8,741.6Z"/><path d="M296.8,822.1a50.7,50.7,0,1,0-50.7,50.7A50.7,50.7,0,0,0,296.8,822.1Zm-73.9,0a23.2,23.2,0,1,1,23.2,23.2A23.2,23.2,0,0,1,222.9,822.1Z"/><path d="M459.6,764.8a50.7,50.7,0,1,0-50.7,50.7A50.8,50.8,0,0,0,459.6,764.8Zm-73.9,0A23.2,23.2,0,1,1,408.9,788,23.2,23.2,0,0,1,385.7,764.8Z"/><path d="M344.4,294.4h0a13.5,13.5,0,0,0,13.5,5.2l41.8-7.9L430,321.6a13.9,13.9,0,0,0,9.6,4,13.3,13.3,0,0,0,4.5-.8,13.8,13.8,0,0,0,9.2-11.3l5.3-42.2,37.8-19.5a13.8,13.8,0,0,0-.5-24.7L457.4,209l-6.9-42a13.5,13.5,0,0,0-9.5-10.9,13.9,13.9,0,0,0-14.1,3.7l-29.1,31.1-42-6.5a13.6,13.6,0,0,0-13.4,5.8,13.8,13.8,0,0,0-.8,14.5L362.1,242,343,280A13.7,13.7,0,0,0,344.4,294.4Zm56.4-75.3a13.4,13.4,0,0,0,12.1-4.2l15-15.9,3.6,21.6a13.5,13.5,0,0,0,7.7,10.2l19.8,9.3-19.4,10.1a13.8,13.8,0,0,0-7.4,10.5l-2.7,21.7L413.9,267a13.9,13.9,0,0,0-9.7-3.9,11.8,11.8,0,0,0-2.6.2l-21.5,4.1,9.9-19.6a13.8,13.8,0,0,0-.3-12.8l-10.5-19.2Z"/><path d="M539.8,842.3h0a14,14,0,0,0,13.6,5.2l43.1-8.2,31.2,30.8a13.5,13.5,0,0,0,9.6,4,13.3,13.3,0,0,0,4.5-.8,13.7,13.7,0,0,0,9.2-11.2l5.5-43.6,39-20.1a13.8,13.8,0,0,0-.5-24.7l-39.7-18.6-7.1-43.3a13.8,13.8,0,0,0-23.6-7.2l-30,32L551.2,730a13.6,13.6,0,0,0-13.3,5.7,13.8,13.8,0,0,0-.8,14.5l21.1,38.4-19.7,39.2A14,14,0,0,0,539.8,842.3Zm57.8-77.4a14.1,14.1,0,0,0,12.1-4.2l15.9-17,3.7,23a14,14,0,0,0,7.8,10.2l21,9.9-20.7,10.6a13.9,13.9,0,0,0-7.3,10.5L627.2,831l-16.5-16.3a13.5,13.5,0,0,0-9.7-4l-2.6.2-22.8,4.4L586,794.5a13.5,13.5,0,0,0-.2-12.8l-11.2-20.3Z"/></svg>