<svg xmlns="http://www.w3.org/2000/svg" viewBox="0 0 1024 1024"><path d="M512,862c-193,0-350-157-350-350S319,162,512,162,862,319,862,512,705,862,512,862Zm0-656.2c-168.9,0-306.2,137.3-306.2,306.2S343.1,818.2,512,818.2,818.2,680.9,818.2,512,680.9,205.8,512,205.8Zm0,87.5a21.9,21.9,0,0,1-21.9-21.9V183.9a21.9,21.9,0,0,1,43.8,0v87.5A21.9,21.9,0,0,1,512,293.3ZM271.4,533.9H183.9a21.9,21.9,0,0,1,0-43.8h87.5a21.9,21.9,0,0,1,0,43.8Zm568.7,0H752.6a21.9,21.9,0,0,1,0-43.8h87.5a21.9,21.9,0,0,1,0,43.8ZM341.9,363.7a21.8,21.8,0,0,1-15.5-6.4l-61.9-61.8a21.9,21.9,0,0,1,31-31l61.8,61.9a21.9,21.9,0,0,1-15.4,37.3ZM744,765.9a22.2,22.2,0,0,1-15.5-6.4l-61.8-61.9a21.8,21.8,0,0,1,30.9-30.9l61.9,61.8a22,22,0,0,1,0,31A21.8,21.8,0,0,1,744,765.9Zm-464,0a21.9,21.9,0,0,1-15.5-37.4l61.9-61.8a21.8,21.8,0,0,1,30.9,30.9l-61.8,61.9A21.8,21.8,0,0,1,280,765.9Z"/><circle cx="512" cy="512" r="43.7"/><path d="M512,533.9a21.8,21.8,0,0,1-16.4-36.3l153.1-175a21.9,21.9,0,1,1,32.9,28.8l-153.1,175A22.2,22.2,0,0,1,512,533.9Z"/></svg>