<svg xmlns="http://www.w3.org/2000/svg" viewBox="0 0 1024 1024"><path d="M526.8,166.1a16.6,16.6,0,0,0-22.4-7.3,16.4,16.4,0,0,0-7.2,7.3l-245,478.3-2.2,4.3.6.4a16.6,16.6,0,0,0,8.7,17.7l1.1.5,245,105a16.3,16.3,0,0,0,13.2,0l245-105a16.7,16.7,0,0,0,8.9-9,16.2,16.2,0,0,0,.9-9.2l.6-.4ZM495.3,731.7,309.3,652l186-79.7Zm0-195.7L302.9,618.5,495.3,242.8Zm33.4,195.7V572.3l186,79.7Zm0-195.7V242.8L721.1,618.5Z"/><rect x="728.7" y="810.3" width="33.3" height="33.33"/><path d="M850.3,635.3h-6.6v-105H810.3v105h-6.6A16.7,16.7,0,0,0,787,652v41.3L551.8,801.1A16.6,16.6,0,0,0,535.3,787H488.7a16.6,16.6,0,0,0-16.5,14.1L237,693.3V652a16.7,16.7,0,0,0-16.7-16.7h-6.6v-105H180.3v105h-6.6A16.7,16.7,0,0,0,157,652v46.7a16.6,16.6,0,0,0,16.7,16.6H205l207.3,95H308.7v33.4H472v6.6A16.7,16.7,0,0,0,488.7,867h46.6A16.7,16.7,0,0,0,552,850.3v-6.6H715.3V810.3H611.7l207.3-95h31.3A16.6,16.6,0,0,0,867,698.7V652a16.4,16.4,0,0,0-4.9-11.8A16.6,16.6,0,0,0,850.3,635.3ZM203.7,682H190.3V668.7h13.4Zm315,151.7H505.3V820.3h13.4ZM833.7,682H820.3V668.7h13.4Z"/><rect x="262" y="810.3" width="33.3" height="33.33"/><rect x="810.3" y="483.7" width="33.3" height="33.33"/><rect x="180.3" y="483.7" width="33.3" height="33.33"/></svg>