<svg xmlns="http://www.w3.org/2000/svg" viewBox="0 0 1024 1024"><path d="M308.5,274.7h-.1a16.8,16.8,0,0,0-3-1.5,16,16,0,0,0-3.1-1,19.4,19.4,0,0,0-6.8,0,15.4,15.4,0,0,0-3.3,1,26.9,26.9,0,0,0-2.9,1.6,17.1,17.1,0,0,0-2.6,2.1,17.1,17.1,0,0,0,0,24.4,15.2,15.2,0,0,0,2.7,2.2,19.1,19.1,0,0,0,2.8,1.5,15.9,15.9,0,0,0,3.3,1l3.4.3,3.4-.3a14.1,14.1,0,0,0,3.1-1,12,12,0,0,0,3-1.5h.1a23.5,23.5,0,0,0,2.6-2.2,19.4,19.4,0,0,0,2.1-2.7,11.8,11.8,0,0,0,1.6-2.9,20.7,20.7,0,0,0,1-3.3,18.4,18.4,0,0,0,.3-3.3,17.4,17.4,0,0,0-5-12.2A26.5,26.5,0,0,0,308.5,274.7Z"/><path d="M709.6,290.6l3.1-1.5a25.3,25.3,0,0,0,2.6-2.2,17.1,17.1,0,0,0,2.1-2.6,21.9,21.9,0,0,0,1.6-3,23.3,23.3,0,0,0,1-3.2,20.4,20.4,0,0,0,.3-3.4,18.4,18.4,0,0,0-.3-3.3,17.3,17.3,0,0,0-1-3.3,16.4,16.4,0,0,0-1.6-2.9,13.7,13.7,0,0,0-2.2-2.7,13.3,13.3,0,0,0-2.6-2.1,17.1,17.1,0,0,0-2.9-1.6l-3.2-1a17.6,17.6,0,0,0-15.6,4.7,17.1,17.1,0,0,0-2.1,2.6,14.6,14.6,0,0,0-1.6,3,13.1,13.1,0,0,0-1,3.2,19.7,19.7,0,0,0-.4,3.4,18.6,18.6,0,0,0,.4,3.4,11.9,11.9,0,0,0,1,3.2,21,21,0,0,0,1.5,3,25.3,25.3,0,0,0,2.2,2.6,18.8,18.8,0,0,0,2.6,2.2l3,1.5a15,15,0,0,0,3.2,1,14.7,14.7,0,0,0,6.8,0A11.2,11.2,0,0,0,709.6,290.6Z"/><path d="M780.9,403.2V274.7a77.8,77.8,0,0,0-77.7-77.6H298.9a93.3,93.3,0,0,0-93.2,93.2v242H176.2A17.3,17.3,0,0,0,159,549.6V809.7a17.2,17.2,0,0,0,17.2,17.2H421.5a17.3,17.3,0,0,0,17.3-17.2V549.6a17.4,17.4,0,0,0-17.3-17.3H392.1V352.4H652.7v50.8a149.4,149.4,0,0,0-57.4,48.7,148.3,148.3,0,0,0,52,215.8,17.3,17.3,0,0,0,25.4-15.2V600.8a44.1,44.1,0,1,1,88.2,0v51.7a17.4,17.4,0,0,0,17.3,17.3,16.6,16.6,0,0,0,8.1-2.1,148.1,148.1,0,0,0-5.4-264.5ZM240.2,290.3a58.7,58.7,0,0,1,58.7-58.7,61.5,61.5,0,0,1,14.3,1.7,59,59,0,0,1,42.6,42.6c.3,1.1.5,2,.7,2.8s.6,3.8.8,5.7.3,4,.3,5.9v242H240.2ZM404.3,792.4H193.5V650H404.3Zm0-225.6v48.7H193.5V566.8ZM392.1,317.9V290.3c0-1.3,0-2.7-.1-4.6,0-.3-.1-.5-.1-.8v-.7h0l-.3-2.9c0-.4-.1-.8-.1-1.2v-1l-.3-2.3-.3-1.9v-.5a14.2,14.2,0,0,0-.4-2,10.6,10.6,0,0,0-.4-1.9c-.1-.8-.3-1.6-.5-2.5a9.3,9.3,0,0,0-.4-1.3V266a20.2,20.2,0,0,0-.7-2.3,8.4,8.4,0,0,0-.5-1.7v-.3c-.2-.8-.5-1.5-.7-2.3l-.6-1.5-.2-.4a14.3,14.3,0,0,0-.8-2.2c-.2-.5-.5-1.1-.7-1.7l-.3-.7c-.3-.6-.5-1.2-.8-1.7l-.6-1.4-.3-.5-1-2.1-.9-1.6-.2-.3-1.1-2h-.1l-1-1.7-.9-1.5-.4-.5-.9-1.4-.7-1-.9-1.3-1.3-1.7c-.5-.6-.9-1.3-1.4-1.8l-.6-.7H704.4a43.2,43.2,0,0,1,42,43.1,43.4,43.4,0,0,1-43.2,43.2ZM795.4,619V600.8a78.6,78.6,0,0,0-157.2,0V619a113.8,113.8,0,0,1,37.9-188.4,17.2,17.2,0,0,0,11.1-16.1V352.4H708l2.4-.2h1.4l2.2-.3h1.3l2.3-.4h.3l.9-.2h.1l2.3-.5h1.2l3.4-.9h.5l2.8-.9,1.1-.4,2.2-.9h.3l1-.4,2-.9,1.2-.6,2.2-1,.8-.5h.2l2.4-1.4h.3l.4-.2,3-1.9.2-.2v75.2a17.2,17.2,0,0,0,11.1,16.1A113.8,113.8,0,0,1,795.4,619Z"/><path d="M812.8,695.8h-192a17.3,17.3,0,0,0-17.2,17.3v96.6a17.2,17.2,0,0,0,17.2,17.2h192A17.2,17.2,0,0,0,830,809.7V713.1A17.3,17.3,0,0,0,812.8,695.8Zm-17.2,96.6H638.1V730.3H795.6Z"/></svg>