<svg xmlns="http://www.w3.org/2000/svg" viewBox="0 0 1024 1024"><path d="M582,310.8c-140,0-253.5,113.5-253.5,253.5S442,817.8,582,817.8,835.5,704.3,835.5,564.3,722,310.8,582,310.8Zm3.7,462.8c-.8,1.5-.8,4.4-1.5,7.3H582c-120.1,0-217.4-97.2-217.4-216.6,0-57.5,22.1-109,58.2-148.1,1.5.7,3,2.2,4.5,3s2.2,11.7,1.4,22.8v1.5s8.9,22.1.8,39.8-7.4,50.1-3,56.7,25.1,32.4,28,36.1c2.2,2.2,9.6,22.1,10.3,24.3s14,19.2,28.8,18.4c8.1-.7,17.7,4.5,24.3,7.4,3.7,1.5,5.9,3,7.4,3s1.4,1.4,2.2,2.9c2.2,3.7,5.1,8.8,12.5,13.3,2.2,1.4,4.4,2.2,6.6,3.7,7.4,4.4,17.7,9.5,18.5,11.7s-1.5,2.3-3,3.7c-4.4,5.2-12.5,14-10.3,25.8,2.9,16.2,25.8,36.1,33.9,40.5C590.8,733.8,587.9,767.7,585.7,773.6ZM771.4,492.8c0,1.5,12.5,9.6,12.5,9.6s-5.2,10.3-8.1,10.3-4.4,10.4-4.4,14.8,5.1,11.8,11,15.4,11.8-3.6,13.3-6.6c.7,6.6.7,12.5,1.5,19.2-5.2,0-14,3.7-17,6.6s-11.8,28.7-14.7,31c-3,6.6-10.3,41.2-10.3,44.9s9.5,30.2,16.2,32.4a218,218,0,0,1-143,105.4c1.5-2.2,3-3.7,3-4.4a12.4,12.4,0,0,1,3.7-2.2c3.6-2.3,7.3-3.7,8.8-6.7s9.6-11.8,13.3-13.2,30.2-25.8,31.6-29.5c4.5-9.6,9.6-19.9,12.6-22.9,5.9-4.4.7-13.2-1.5-16.2l-.7-.7c-2.3-3.7-17-5.2-19.2-5.2s-15.5-6.6-16.2-8.8c0-4.4-11.8-16.2-15.5-16.2-1.5,0-8.8-1.5-12.5-6.6s-22.1-9.6-27.3-9.6-11.8-.8-16.2-3-11.8.8-19.1,4.5a13.6,13.6,0,0,1-3.7,1.4c-2.2.8-17-2.2-19.9-3.7-.8-.7-1.5-6.6-1.5-9.5a15.2,15.2,0,0,0-1.5-7.4c-1.4-2.2-4.4-3-11-4.4-1.5-.8-3.7-.8-5.2-1.5a17.4,17.4,0,0,1,1.5-4.4c2.2-5.2,3.7-8.9,2.2-11.1-.7-.7-1.5-1.4-2.2-1.4-3-.8-8.1,2.2-12.5,5.8-2.2,1.5-5.2,3.7-5.9,3.7-3,0-8.9-2.2-15.5-6.6-3.7-2.2.7-15.5,2.9-21.4.8-2.9,2.3-5.1,2.3-6.6s7.3-3.7,17.6-3.7a53.1,53.1,0,0,0,10.4-1.5,55.4,55.4,0,0,1,8.8-1.4c1.5,0,4.4,3.7,5.9,6.6s5.2,7.4,8.1,6.6c4.4-.7,3.7-5.9,3.7-9.5v-3c.7-2.2,5.9-11,10.3-14s12.5-13.3,10.3-18.4c0-2.2,9.6-8.1,12.5-10.3a18.9,18.9,0,0,0,3.7-2.2c.8-.8,2.2-1.5,3-2.3,2.9-1.4,7.3-3.6,7.3-9.5,0-3,10.4-4.5,16.3-5.9,1.4,0,2.9-.8,3.6-.8,3.7-.7,5.9-1.4,6.7-3.6s0-4.5-.8-7.4c0-.8-.7-1.5-.7-2.2-2.2-5.2-.7-8.1,3.7-11.8,2.2-1.5,5.9-2.2,9.6-2.2s8.8-.8,12.5-3,4.4-2.9,5.1-4.4-.7-5.2-2.2-6.6-1.4-1.5-1.4-2.2c-2.3-4.5-5.9-7.4-8.9-9.6-1.5-1.5-2.9-7.4-3.7-11.1s-.7-4.4-1.4-5.9a6,6,0,0,0-3-2.9c-3.7-1.5-8.8.7-11.8,2.2,0-.7-.7-2.2-.7-2.9a8.4,8.4,0,0,0-2.2-5.9l-4.4-4.5c-3-2.9-7.4-6.6-9.6-8.8a5.4,5.4,0,0,0-4.4-1.5c-3.7.8-6.7,5.2-9.6,9.6,0,.7-.8.7-.8,1.5-4.4,7.3-5.1,12.5-2.2,14.7,0,0,.8,1.5-.7,3.7-1.5,3.7-3.7,5.9-5.2,5.9-4.4-.7-5.1,5.1-6.6,11-.7,2.3-.7,5.2-1.5,6.7-.7-.8-2.2-4.4-2.2-14V442a3.5,3.5,0,0,0-1.5-2.9c-1.4-1.5-2.9-.8-4.4-.8s-2.9,0-3.7-.7c-2.2-3.7-14-8.1-18.4-10.3V414c1.5-2.2,19.9-14.7,23.6-15.5,5.9-2.2,19.9-11.8,22.8-14a4.9,4.9,0,0,0,3-5.1c-.8-4.5-8.9-8.1-12.5-8.9-3-5.9-6.7-5.9-12.6-5.9a37.4,37.4,0,0,1-8.8-.7c-13.3-2.2-25.1-3-33.9-1.5-6.6.8-14-.7-20.6-2.2-3-.7-4.5-.7-6.7-1.5a219,219,0,0,1,76.7-14,216.4,216.4,0,0,1,84.7,17,53.8,53.8,0,0,0,2.2,5.9c3,5.9,7.4,16.9,7.4,25.8s.7,16.9,0,19.1,16.2,22.1,19.9,22.1,5.9-2.2,8.8-5.9,5.9-8.1,12.5-13.2,17-3,22.1-3a204.8,204.8,0,0,1,19.9,25.1c-.7.7-2.2,1.5-2.9,2.2-3,2.9-11.8,11.8-11.1,18.4s8.1,14.7,17,19.9A17.5,17.5,0,0,1,771.4,492.8Z"/><path d="M843.6,259.3a18.2,18.2,0,0,0-18.4,18.4V302c-66.4-61.2-151.8-95.8-243.2-95.8-95.8,0-185.7,37.6-253.5,104.6-66.3,66.4-103.1,154-104.6,247.6,0,10.3,8.1,18.4,17.7,18.4s18.4-8.1,18.4-17.6c1.5-84,34.6-162.9,94.3-222.6A320.6,320.6,0,0,1,582,242.3c81.1,0,156.9,30.2,215.9,84H775.8a18.5,18.5,0,0,0,0,36.9h67.8A18.2,18.2,0,0,0,862,344.7v-67A18.2,18.2,0,0,0,843.6,259.3Z"/><path d="M223.2,677.8l-57.5-26.5a2.6,2.6,0,0,0-3.7,2.2v79.6c0,.7.7,2.2,1.5,2.2l57.4,25.8c2.3.7,3.7-.8,3.7-2.3V680C224.6,679.3,223.9,677.8,223.2,677.8Z"/><path d="M290.9,626.9l-52.3-24.3h-2.2l-52.3,24.3c-2.2.8-2.2,4.5,0,5.2l52.3,24.3h2.2l52.3-24.3C293.2,630.6,293.2,627.7,290.9,626.9Z"/><path d="M308.6,651.3l-57.4,25.8c-.8.7-1.5,1.4-1.5,2.2v79.5c0,2.3,2.2,3.7,3.7,2.3l57.4-25.8c.8-.8,1.5-1.5,1.5-2.2V654.2C313.1,652,310.8,650.5,308.6,651.3Z"/></svg>