<svg xmlns="http://www.w3.org/2000/svg" viewBox="0 0 1024 1024"><path d="M237.9,346.5l-73,122.3a18.1,18.1,0,0,0-2.2,14.7l54.6,178.4A19.3,19.3,0,0,0,232,675.1l167.3,28.8h5.1L594.5,684c6.7-.8,12.6-4.5,14.8-10.4l48.6-103.8a19,19,0,0,0-.7-17.7c-3-5.2-8.9-8.1-14.8-8.9l-95-4.4-28.8-54.5c-12.5,2.9-24.3,7.3-36.1,11.8l36.9,70a17,17,0,0,0,15.4,9.5l77.4,3.7-32.4,69.3L402.2,667,248.9,640.5,201.1,480.6l63.3-106.1,148.9-9.6,16.2,30.2a345.8,345.8,0,0,1,35.3-13.2l-23.5-45c-3.7-6.6-9.6-10.3-17.7-9.6l-171,10.3C246.7,338.4,240.8,341.3,237.9,346.5Z"/><path d="M319.7,540.3a19.7,19.7,0,0,0,13.2,5.9,18.9,18.9,0,0,0,13.3-5.2A366.6,366.6,0,0,1,592.3,436.4l-21.4,21.4a18.8,18.8,0,0,0,0,26.5c3.7,3.7,8.2,5.1,13.3,5.1s9.6-1.4,13.3-5.1l53.8-53.8a18.8,18.8,0,0,0,0-26.5l-53.8-54.6A18.8,18.8,0,0,0,570.9,376l22.2,22.1c-103.2,2.2-199.7,43.4-273.4,115.7A18.6,18.6,0,0,0,319.7,540.3Z"/><path d="M694.7,376.7a3.2,3.2,0,0,0-4.4,2.9V471c0,1.5.8,2.2,2.2,3l64.9,29.4a3.2,3.2,0,0,0,4.4-2.9V409.1c0-1.5-.7-2.2-2.2-2.9Z"/><path d="M777.3,381.1l59.6-27.2a3.2,3.2,0,0,0,.8-5.9l-60.4-27.3c-.8-.7-1.5-.7-3,0L714.6,348a3.5,3.5,0,0,0,0,5.9l59.7,27.2C775.1,381.9,775.8,381.9,777.3,381.1Z"/><path d="M857.6,376.7l-64.9,29.5c-1.4.7-2.2,1.4-2.2,2.9v91.4a3.2,3.2,0,0,0,4.4,2.9L859.8,474c1.5-.8,2.2-1.5,2.2-3V379.6C862,376.7,859.8,375.2,857.6,376.7Z"/></svg>