<svg xmlns="http://www.w3.org/2000/svg" viewBox="0 0 1024 1024"><path d="M857.7,816V389.2A15.8,15.8,0,0,0,842,373.5H731.5a15.8,15.8,0,0,0-15.7,15.7V813.4H672.1V606.2a15.7,15.7,0,0,0-15.7-15.8H546a15.8,15.8,0,0,0-15.8,15.8V813.4H483.1V508.8A15.7,15.7,0,0,0,467.4,493H357a15.8,15.8,0,0,0-15.8,15.8V813.4H300.9V669a15.8,15.8,0,0,0-15.7-15.8H174.7A15.8,15.8,0,0,0,159,669V829.2a15.7,15.7,0,0,0,15.7,15.7H849.3a15.7,15.7,0,0,0,8.4-28.9Zm-588.3-2.6H190.5V684.7h78.9Zm182.3,0h-79V524.5h79Zm189,0h-79V621.9h79Zm185.5,0H747.3V405h78.9Z"/><path d="M230,493c-23.9,0-43.4,20.4-43.4,45.4s19.5,45.4,43.4,45.4,43.3-20.4,43.3-45.4a45.6,45.6,0,0,0-11.7-30.8L373.4,384.5a59.7,59.7,0,0,0,38.8,14.7c16.6,0,32.7-7.3,44.5-20.1l105,77.2a47.3,47.3,0,0,0-3.8,18.3c0,25,19.4,45.4,43.3,45.4s43.3-20.4,43.3-45.4a45.8,45.8,0,0,0-5.4-21.6L757.5,305.1a58.6,58.6,0,0,0,29.3,7.9c34.9,0,63.4-30,63.4-66.9s-28.5-67-63.4-67-63.5,30-63.5,66.9a69,69,0,0,0,11.2,37.6L615.7,431.9a40.1,40.1,0,0,0-14.5-2.7,40.9,40.9,0,0,0-17.6,4.1L471.8,351.2a63.7,63.7,0,0,0,2.6-17.7c0-36.2-27.9-65.6-62.2-65.6S350,297.3,350,333.5a68.2,68.2,0,0,0,4.7,24.8L232.2,493.2ZM786.8,210.6c17.6,0,31.9,15.9,31.9,35.4s-14.3,35.5-31.9,35.5-32-15.9-32-35.5S769.1,210.6,786.8,210.6ZM601.2,460.7c6.5,0,11.9,6.2,11.9,13.9s-5.4,13.9-11.9,13.9-11.9-6.2-11.9-13.9S594.7,460.7,601.2,460.7Zm-189-161.3c17,0,30.7,15.3,30.7,34.1s-13.7,34.3-30.7,34.3-30.8-15.4-30.8-34.3S395.2,299.4,412.2,299.4Zm-170.4,239c0,7.7-5.3,13.9-11.8,13.9s-11.9-6.2-11.9-13.9,5.3-13.9,11.9-13.9S241.8,530.7,241.8,538.4Z"/></svg>