<svg xmlns="http://www.w3.org/2000/svg" viewBox="0 0 1024 1024"><path d="M860,499.4l-.9-1c-6.3-5.9-157.2-144.2-347-144.2S171.5,492.5,165.2,498.4a18.7,18.7,0,0,0-5.9,12.9,18.1,18.1,0,0,0,5,13.3l.9,1c6.3,5.9,157.2,144.3,346.9,144.3s340.7-138.4,347-144.3A18.5,18.5,0,0,0,860,499.4ZM206.6,512c29.6-23.7,100.5-75.1,190-102.5a154.3,154.3,0,0,0,0,205.1C307.1,587.1,236.2,535.7,206.6,512ZM512.1,629.5A117.5,117.5,0,1,1,629.7,512C629.6,576.7,576.9,629.4,512.1,629.5Zm115.5-14.9c51.9-58,52.3-146.7.1-205.2,89.5,27.5,160.5,78.9,190,102.6C788.2,535.8,717.2,587.2,627.6,614.6Z"/><path d="M512.1,432.7A79.3,79.3,0,1,0,591.4,512,79.3,79.3,0,0,0,512.1,432.7Zm31,73.1a22.2,22.2,0,1,1,22.1-22.2A22.2,22.2,0,0,1,543.1,505.8Z"/><path d="M375.1,212.8l13.8,64.5a22.8,22.8,0,0,0,9.9,14.3,22.3,22.3,0,0,0,12.2,3.6,26.1,26.1,0,0,0,4.8-.5,22.7,22.7,0,0,0,17.4-26.9l-13.8-64.5a22.7,22.7,0,0,0-44.4,9.1v.4Z"/><path d="M608.5,294.7a25,25,0,0,0,4.7.5,22.6,22.6,0,0,0,22.1-17.9l13.9-64.5a22.7,22.7,0,0,0-44.3-9.5l-13.8,64.5a22.4,22.4,0,0,0,3.1,17.1A23,23,0,0,0,608.5,294.7Z"/><path d="M855.5,276.6a22.8,22.8,0,0,0-31.7,4.8l-39.1,53.1a22.7,22.7,0,0,0,36.5,26.9l39.1-53.1a22.1,22.1,0,0,0,4.1-16.8A22.4,22.4,0,0,0,855.5,276.6Z"/><path d="M203.1,361.4a22.7,22.7,0,1,0,36.5-26.9l-39.7-53.9a22.7,22.7,0,0,0-36.5,26.9Z"/><path d="M392.5,838.1h.3a22.9,22.9,0,0,0,26.6-17.5l13.8-64.5a22.7,22.7,0,0,0-44.3-9.5l-13.8,64.5a22.5,22.5,0,0,0,17.4,26.9Z"/><path d="M627,838.6a19.6,19.6,0,0,0,4.8-.5,21.8,21.8,0,0,0,14.2-9.8,22.9,22.9,0,0,0,3.2-17.1l-13.9-64.5a22.5,22.5,0,0,0-26.8-17.4,22.7,22.7,0,0,0-14.3,9.8,22.4,22.4,0,0,0-3.1,17.1l13.8,64.5A22.7,22.7,0,0,0,627,838.6Z"/><path d="M821.2,662.6a22.6,22.6,0,0,0-40.6,10,22.2,22.2,0,0,0,4.1,16.9l39.1,53.1h0a22.4,22.4,0,0,0,14.9,8.9,18.7,18.7,0,0,0,3.4.3,21.9,21.9,0,0,0,13.4-4.5,22.6,22.6,0,0,0,4.8-31.6Z"/><path d="M168,748.1l.2.2h.2a23,23,0,0,0,13.2,4.2,22.6,22.6,0,0,0,18.3-9.2l39.7-53.9a22.7,22.7,0,0,0-21.7-35.9,22.9,22.9,0,0,0-14.8,9l-39.7,54A22.7,22.7,0,0,0,168,748.1Z"/></svg>