<svg xmlns="http://www.w3.org/2000/svg" viewBox="0 0 1024 1024"><path d="M852.5,495.5H329.9V444.2c0-10.5-4.8-20.9-12.3-28.5a40.3,40.3,0,0,0-28.5-11.4c-22.8,0-40.8,19-40.8,40.8v50.4H171.5c-9.9,0-17,7.1-17,17s7.1,17,17,17h76.8v49.4c0,22.7,19,40.8,40.8,40.8a40.5,40.5,0,0,0,40.8-40.8V529.5H852.5a17,17,0,0,0,17-17C869.5,502.6,862.4,495.5,852.5,495.5Z"/><path d="M852.5,751.6H538.6V700.3a39,39,0,0,0-39.9-39.9c-22.7,0-40.8,19-40.8,40.8v50.4H171.5c-9.9,0-17,7.1-17,17s7.1,17,17,17H457.9V835c0,22.7,19,40.8,40.8,40.8s40.8-18.1,39.9-40.8V785.6H852.5a17,17,0,0,0,17-17C869.5,758.7,862.4,751.6,852.5,751.6Z"/><path d="M852.5,239.4H756.7V188.1c0-10.4-4.7-20.9-12.3-28.5a40.1,40.1,0,0,0-28.5-11.4c-22.7,0-40.8,19-40.8,40.8v50.4H171.5c-9.9,0-17,7.1-17,17s7.1,17,17,17H675.1v49.4c0,22.7,19,40.8,40.8,40.8a40.5,40.5,0,0,0,40.8-40.8V273.4h95.8a17,17,0,0,0,17-17C869.5,246.5,862.4,239.4,852.5,239.4Z"/></svg>