<svg xmlns="http://www.w3.org/2000/svg" viewBox="0 0 1024 1024"><path d="M814.7,687.3c-3.4-10.9-6.9-22.2-12.1-33.5l-1.9-4.2-11.1,4.1V430.6l7.1-19.4-4-2-3.1-1.3V343.6a10.9,10.9,0,0,0-.9-4.8,9.5,9.5,0,0,0-1.5-3.8,12.7,12.7,0,0,1-.7-1.2l-.3-.7-4.6-4.6h-1.4a5.8,5.8,0,0,0-1.5-.6l-1.2-.5-.3-.2L612.7,270.4l-7-15-4.4,1.7-6.7,3.2-4.3,2-72.5-25.5a19.5,19.5,0,0,0-11.7,0l-72.9,25.4-4.6-2.4c-2.1-1-4.1-2-6-3.1l-4.8-2.9-7.3,15.8L246.7,326.9a9.6,9.6,0,0,0-3.2,1.4l-.3.2h-1.6l-4,4a10.3,10.3,0,0,0-2.2,3.5,5.6,5.6,0,0,1-.4,1.2l-.6,1v1.7a4.3,4.3,0,0,0-.1.5,7.9,7.9,0,0,0-.7,3.2v64.3l-3.2,1.3-4,2,7.2,19.4v223l-10.5-4.2-1.8,4.7c-4.2,10.7-8.4,22.4-11.9,33.1l-1.6,4.8,25.5,8.1,1.6-4.7c.6-1.8,1.2-3.8,1.9-5.7s.5-1.6.8-2.5h0l3.4,3.3a8.7,8.7,0,0,0,3.5,2.2l1.1.5h.3l252.7,91.7v7.4h26.8v-8.2l252.4-91.7.6-.2,1.1-.5a7.4,7.4,0,0,0,3.5-2.1l3.3-3.3,2.8,8.8,1.4,4.9,25.6-8.1Zm-66.5-83.7a114,114,0,0,1,6.1,11.1v35.9L529.7,573V450.9l224.6-81.6V594.6l-8.9,4.4ZM576,396.1l.3.3L512,419.3l-63.7-23.4,3-3.1L434.1,373l-3.7,3a143.7,143.7,0,0,0-10.8,10L305,344.6l193.6-67.3v24.1h26.8V277.3L719,344.6,604.4,386l-4.2-3.9c-2.2-1.9-4.2-3.7-6.2-5.7l-3.8-3.8-17.5,20.2ZM494.3,610.6V745L305,676.2ZM269.7,594.9V369.3l224.6,81.6V573L269.7,650.6V615.9c1.1-1.9,2-3.7,2.9-5.5s2-4,3.2-6l2.5-4.2ZM719,676.2,529.7,745V610.6Z"/><rect x="503.6" y="812" width="16.9" height="24.47"/><rect x="503.6" y="860.9" width="16.9" height="16.88"/><rect x="503.6" y="146.2" width="16.9" height="16.88"/><rect x="503.6" y="196" width="16.9" height="32.91"/><rect x="503.6" y="329.3" width="16.9" height="16.88"/><path d="M788.8,635.6l6.7,15.2c11-4.2,21.1-9.3,31.3-14.3l-7.6-15.2C809,627.2,798.9,631.4,788.8,635.6Z"/><path d="M630.1,692.2l-2.5-16.9c-11,1.7-21.9,2.5-32.9,3.4l1.7,16.8C608.2,694.7,619.2,693.9,630.1,692.2Z"/><path d="M697.7,681.2l-3.4-16.9c-11,2.6-22,4.2-32.9,5.9l2.5,16.9C674.9,685.4,686.7,683.7,697.7,681.2Z"/><path d="M528.9,699.8c10.9,0,22.8-.9,33.7-.9l-.8-16.9c-11,.9-22,.9-32.9.9Z"/><path d="M144.1,467.7c-9.3,9.3-16.9,18.6-22,28.7l15.2,7.6c4.2-8.5,11-16.9,18.6-24.5Z"/><path d="M128.9,532.7H112v1.7a72.5,72.5,0,0,0,8.4,34.6l15.2-7.6c-4.2-9.3-6.7-17.8-6.7-27Z"/><path d="M236.1,636.5c-11-4.2-20.3-9.3-29.6-13.5l-7.6,15.2a281.8,281.8,0,0,0,31.2,14.3Z"/><path d="M879.9,467.7l-11.8,11.8c8.5,7.6,14.4,16,19.4,24.5l15.2-8.5C896,486.3,889.2,476.1,879.9,467.7Z"/><path d="M141.5,597.7a270.5,270.5,0,0,0,27,22.7l9.3-13.5a201.6,201.6,0,0,1-24.4-20.2Z"/><path d="M201.5,428c-11,5.9-21.1,11-29.6,17.8l9.3,14.3a210.8,210.8,0,0,1,27.8-16Z"/><path d="M912,531.8l-16.9.9v1.7c0,9.2-2.5,17.7-6.7,27l15.2,7.6c5-11,8.4-22.8,8.4-33.8Z"/><path d="M327.2,681.2c11,2.5,21.9,4.2,32.9,6.7l2.5-16.8c-10.9-1.7-21.9-4.2-32.9-5.9Z"/><path d="M393.9,692.2c10.9,1.7,21.9,2.5,33.7,3.3l1.7-16.8c-11-.9-21.9-2.6-32.9-3.4Z"/><path d="M462.2,681.2l-.8,16.9c10.9.8,22.8.8,33.7.8V682C484.2,682,473.2,682,462.2,681.2Z"/><path d="M822.5,428,815,443.2c10.1,5.1,19.4,11,27.8,16.1l9.3-14.4C843.6,439.8,833.5,433.9,822.5,428Z"/><path d="M846.2,605.2l9.3,13.6c10.1-7.6,19.4-14.4,27-22.8l-11.9-11C863.9,591.7,855.5,599.3,846.2,605.2Z"/><path d="M782.9,804.4a58.2,58.2,0,0,1-7.6,6.8l9.3,13.5c3.3-2.6,7.6-5.1,10.1-8.5A66.4,66.4,0,0,0,809,796l-15.1-7.6A55.5,55.5,0,0,1,782.9,804.4Z"/><path d="M387.9,247.4c-11.8-4.2-22.7-8.4-32.9-10.9l-4.2,16c10.1,2.5,21.1,6.8,32.1,11Z"/><path d="M580.4,794.3c10.1,5.9,21.1,10.9,31.2,16l6.7-15.2c-10.1-4.2-20.2-10.1-30.4-15.2Z"/><path d="M241.1,262.6a54.4,54.4,0,0,1,14.4-10.1l-7.6-15.2a77.2,77.2,0,0,0-18.6,13.5,134.9,134.9,0,0,0-10.1,11.8l14.3,9.3C236.1,268.5,238.6,266,241.1,262.6Z"/><path d="M799.8,725.9c.8,7.6,1.7,16.1,1.7,22.8V758l16.8,1.7v-11c0-7.6-.8-16.9-1.7-25.3Z"/><path d="M644.5,823a301.1,301.1,0,0,0,33.7,10.1l4.3-16a274.5,274.5,0,0,1-32.1-10.2Z"/><path d="M527.2,348.7c8.4,6.8,17.7,14.4,26.2,21.1l10.9-12.7-27-21.9Z"/><path d="M212.4,369.8c2.6,11,6.8,21.9,11,33.8l16-5.9a279.3,279.3,0,0,1-10.1-32.1Z"/><path d="M714.5,823l-1.7,16.8a82.4,82.4,0,0,0,14.4.9,185.5,185.5,0,0,0,21.9-1.7l-2.5-16.9C736.5,823.8,726.3,823.8,714.5,823Z"/><path d="M222.5,332.7a92.5,92.5,0,0,1-.8-14.4,117.8,117.8,0,0,1,1.7-17.7l-16.9-2.5a158.5,158.5,0,0,0-1.7,20.2c0,5.1,0,11,.9,16.1Z"/><path d="M296.8,244.1a179.3,179.3,0,0,1,21.1,1.7l2.5-16.9a222.1,222.1,0,0,0-23.6-1.7,66.7,66.7,0,0,0-12.6.8l1.6,16.9C289.2,244.1,292.6,244.1,296.8,244.1Z"/><path d="M509.5,315c-9.3-6.8-19.4-13.5-28.7-19.5l-9.3,14.4c9.3,5.9,18.6,12.6,27.8,18.6Z"/><path d="M708.6,506.5c-6.7-9.3-14.3-17.7-21.9-27l-12.7,11c7.6,8.4,14.4,17.7,21.1,26.1Z"/><path d="M749.1,563.1c-5.9-9.3-12.6-19.5-19.4-28.7l-13.5,10.1c6.8,9.3,12.7,18.6,18.6,27.8Z"/><path d="M652.1,464.3l12.6-10.9c-7.6-8.5-16-16.9-23.6-25.4l-11.8,11.8C636.9,447.4,644.5,455.9,652.1,464.3Z"/><path d="M551.7,309.9l-9.3-14.4c-9.3,6-19.4,12.7-28.7,19.5l10.1,13.5C533.1,322.5,542.4,315.8,551.7,309.9Z"/><path d="M802.3,318.3a92.5,92.5,0,0,1-.8,14.4l16.8,1.7c.9-5.1.9-11,.9-16.1a158.5,158.5,0,0,0-1.7-20.2l-16.9,2.5A117.8,117.8,0,0,1,802.3,318.3Z"/><path d="M785.4,396.8l16.1,5.9c4.2-11.8,7.5-22.8,10.9-33.7l-16.9-3.4A267.5,267.5,0,0,1,785.4,396.8Z"/><path d="M230.1,788.4,215,796a66.4,66.4,0,0,0,14.3,20.2,57.6,57.6,0,0,0,11,8.5l9.3-14.4a56.7,56.7,0,0,1-8.5-6.7C236.9,800.2,232.7,794.3,230.1,788.4Z"/><path d="M673.2,252.5l-4.2-16c-11,3.3-22,6.7-32.9,11.8l5.9,16A128.3,128.3,0,0,1,673.2,252.5Z"/><path d="M738.2,244.1l1.6-16.9a170.8,170.8,0,0,0-36.2.8l2.5,16.9C717.1,244.1,728,243.2,738.2,244.1Z"/><path d="M790.5,271.9l14.3-9.3a62.8,62.8,0,0,0-9.3-11.8,62.2,62.2,0,0,0-19.4-13.5l-7.6,15.2c5.9,2.5,10.2,6.8,14.4,11A80.7,80.7,0,0,1,790.5,271.9Z"/><path d="M496,348.7l-10.2-13.5c-9.2,6.8-17.7,14.4-27,21.9l11,12.7Z"/><path d="M278.2,822.1,275.7,839a188.9,188.9,0,0,0,22,1.7,76.9,76.9,0,0,0,14.3-.9L310.3,823C298.5,823.8,287.5,823.8,278.2,822.1Z"/><path d="M382.9,428c-8.5,8.5-16,16.9-23.6,25.4l12.6,10.9c7.6-8.4,15.2-16.9,23.6-24.5Z"/><path d="M221.7,748.7a227.5,227.5,0,0,1,1.7-22.8l-16.9-2.5c-.8,8.4-1.7,16.9-1.7,25.3,0,4.2,0,7.6.9,11l16.8-1.7C222.5,755.5,221.7,752.1,221.7,748.7Z"/><path d="M342.4,817.1l4.2,16A302.5,302.5,0,0,0,380.4,823l-6-16.1A273.2,273.2,0,0,1,342.4,817.1Z"/><path d="M314.5,506.5,328,516.6c6.8-8.4,14.4-17.7,21.1-26.1l-12.6-11C328.9,488.8,322.1,498.1,314.5,506.5Z"/><path d="M274.9,563.1l14.3,9.2c5.9-9.2,12.7-18.5,18.6-27.8l-13.5-10.1C287.5,544.5,280.8,553.8,274.9,563.1Z"/><path d="M405.7,794.3l6.7,15.2c10.1-5.1,20.3-10.2,31.2-16.1l-8.4-15.2C425.1,784.2,415,789.2,405.7,794.3Z"/></svg>