<svg xmlns="http://www.w3.org/2000/svg" viewBox="0 0 1024 1024"><path d="M418,434.6V589.4A16.7,16.7,0,0,0,434.6,606H589.4A16.7,16.7,0,0,0,606,589.4V434.6A16.7,16.7,0,0,0,589.4,418H434.6A16.7,16.7,0,0,0,418,434.6Zm33.2,16.6H572.8V572.8H451.2Z"/><path d="M528.6,358.7V285.3a63.7,63.7,0,1,0-33.2,0v73.4ZM481.5,223.6A30.5,30.5,0,1,1,512,254.1,30.6,30.6,0,0,1,481.5,223.6Z"/><path d="M495.4,665.3v73.4a63.7,63.7,0,0,0,16.5,125.2,66.4,66.4,0,0,0,15.2-1.8,63.7,63.7,0,0,0,1.5-123.4V665.3Zm47.1,135.1A30.5,30.5,0,1,1,512,769.8,30.6,30.6,0,0,1,542.5,800.4Z"/><path d="M632.4,415.3l52.1-52a64.1,64.1,0,0,0,31.7,8.5h.1a63.7,63.7,0,0,0,.1-127.4h-.1A63.8,63.8,0,0,0,661,339.8l-52.1,52.1Zm61.7-128.5.3-.3a29.9,29.9,0,0,1,21.5-8.9h.1a29.9,29.9,0,0,1,21.5,8.9,30.5,30.5,0,0,1-43,43.2h-.1a30.3,30.3,0,0,1-.3-42.8Z"/><path d="M391.9,608.7l-52.1,52.1a63.8,63.8,0,0,0-86.3,22.1,63.8,63.8,0,0,0,21.3,87.6,63,63,0,0,0,33.1,9.3A64.9,64.9,0,0,0,323,778a63.8,63.8,0,0,0,40.2-93.8l52.1-52.1ZM329.6,737.5a30.5,30.5,0,0,1-43.1,2.1,29.8,29.8,0,0,1-10-21.1,30.4,30.4,0,0,1,7.9-22,20.8,20.8,0,0,1,2.1-2.1,30.2,30.2,0,0,1,20.5-7.9,30.5,30.5,0,0,1,22.6,51Z"/><path d="M660.8,684.4a63.8,63.8,0,1,0,100.6-13.8l-1.4-1.4-.5.4a63.6,63.6,0,0,0-75.3-8.7l-52.1-52.1-23.4,23.5Zm33.5,10.1a30,30,0,0,1,21.5-8.9,30.4,30.4,0,0,1,21.8,51.8l1.4,1.4-1.5-1.3-.6.6h0a30.3,30.3,0,0,1-21,8.4h0a30.5,30.5,0,0,1-21.6-52.1Z"/><path d="M262.8,353a63.2,63.2,0,0,0,76.8,10.2l52.1,52.1,23.5-23.4-52-52.1a63.8,63.8,0,0,0-55.3-95.5h0A63.7,63.7,0,0,0,262.8,353Zm21.6-66.6a30.7,30.7,0,0,1,43.1-2l2.1,2v.2a30.6,30.6,0,0,1,10,21.1,30.1,30.1,0,0,1-7.9,22,30.6,30.6,0,0,1-21.1,10,30.1,30.1,0,0,1-22-7.9c-.7-.7-1.5-1.4-2.1-2.1h-.1A30.5,30.5,0,0,1,284.4,286.4Z"/><path d="M738.9,495.4H665.6v33.2h73.3a64.1,64.1,0,0,0,61.3,47,61.7,61.7,0,0,0,15.3-1.9,63.6,63.6,0,0,0-15.1-125.4h0A63.8,63.8,0,0,0,738.9,495.4Zm61.5-13.9A30.5,30.5,0,1,1,769.8,512,30.6,30.6,0,0,1,800.4,481.5Z"/><path d="M208.5,450.3a63.6,63.6,0,0,0,15.1,125.4h0a63.6,63.6,0,0,0,61.5-47.1h73.3V495.4H285.1A63.7,63.7,0,0,0,208.5,450.3ZM254.2,512a30.6,30.6,0,1,1-30.6-30.5A30.6,30.6,0,0,1,254.2,512Z"/><rect x="486.3" y="495.4" width="51.4" height="33.17"/></svg>