<svg xmlns="http://www.w3.org/2000/svg" viewBox="0 0 1024 1024"><path d="M759.9,652.8a107.1,107.1,0,0,0-85.2,42.4L557.1,633.8,655,603.1a84.2,84.2,0,1,0-12.3-37.2L508,608.1l-101.4-53L438.9,452,674.7,328.8A107.1,107.1,0,1,0,759.9,157,107.2,107.2,0,0,0,657,293.8L520.4,365.2,523,363a84.2,84.2,0,1,0-99.9,8.2l-16.7,53.6-53.2,27.8a109.3,109.3,0,0,0-35.8-33.5,107.1,107.1,0,1,0-53.3,200,105.8,105.8,0,0,0,37.4-6.8,81.6,81.6,0,0,0-17.1,11,84.2,84.2,0,1,0,136.9,53l82.9-26L657,730.2A107.2,107.2,0,0,0,759.9,867a107.1,107.1,0,0,0,0-214.2Zm67.9,107.1A67.9,67.9,0,1,1,759.9,692,67.9,67.9,0,0,1,827.8,759.9ZM681.5,558.7a45.2,45.2,0,0,1,45.1-45.1,45.1,45.1,0,1,1,0,90.2A45.2,45.2,0,0,1,681.5,558.7ZM332,512a67.9,67.9,0,1,1-67.9-67.9A68,68,0,0,1,332,512Zm36.6-23.3,21.2-11-18.5,59-2.7-1.4A107.7,107.7,0,0,0,368.6,488.7ZM337.9,643.2a45.1,45.1,0,1,1-45.1,45.1A45.1,45.1,0,0,1,337.9,643.2Zm117.2-18.5-48.3,15.1a84.1,84.1,0,0,0-20.4-20.4l8.3-26.3ZM435.6,331.5a45.1,45.1,0,0,1,0-63.8h0a45.1,45.1,0,1,1,0,63.8ZM692,264.1A67.9,67.9,0,1,1,759.9,332,68,68,0,0,1,692,264.1ZM455.4,399.2l4.9-15.7a84.7,84.7,0,0,0,31-3.1Zm-138,205.6a107.9,107.9,0,0,0,35.8-33.4l6.2,3.2-9.5,30.3a84.1,84.1,0,0,0-40.5,4.1A68,68,0,0,0,317.4,604.8Z"/></svg>